<svg width="512" height="512" viewBox="0 0 512 512" fill="none" xmlns="http://www.w3.org/2000/svg">
  <rect width="512" height="512" rx="128" fill="#16a34a"/>
  <!-- Garden Leaf -->
  <path d="M256 120C256 120 160 180 160 300C160 360 200 400 256 400C312 400 352 360 352 300C352 180 256 120 256 120Z" fill="white" fill-opacity="0.2"/>
  <path d="M256 140C256 140 180 190 180 290C180 340 214 374 256 374C298 374 332 340 332 290C332 190 256 140 256 140Z" fill="white"/>
  <!-- Pet Paw Print (Inside leaf or overlapping?) -->
  <!-- Main pad -->
  <circle cx="256" cy="280" r="30" fill="#16a34a"/>
  <!-- Toes -->
  <circle cx="220" cy="245" r="12" fill="#16a34a"/>
  <circle cx="244" cy="230" r="12" fill="#16a34a"/>
  <circle cx="268" cy="230" r="12" fill="#16a34a"/>
  <circle cx="292" cy="245" r="12" fill="#16a34a"/>
  
  <!-- Subtle line for leaf vein -->
  <path d="M256 140V374" stroke="#16a34a" stroke-width="4" stroke-linecap="round" opacity="0.1"/>
</svg>
